STARTFONT 2.1
FONT -Monotype-Plantin-Regular-I-Normal--14-140-75-75-P-81-iso8859-5
SIZE 14 75 75
FONTBOUNDINGBOX 19 18 -2 -4

STARTPROPERTIES 24
FOUNDRY "Monotype"
FAMILY_NAME "Plantin"
WEIGHT_NAME "Regular"
SLANT "I"
SETWIDTH_NAME "Normal"
ADD_STYLE_NAME ""
PIXEL_SIZE 14
POINT_SIZE 140
RESOLUTION_X 75
RESOLUTION_Y 75
SPACING "P"
AVERAGE_WIDTH 81
CHARSET_REGISTRY "iso8859"
CHARSET_ENCODING "5"
FACE_NAME "Plantin Inclined ISO Latin Cyrillic"
_DEC_DEVICE_FONTNAMES "PS=plantin-in-latcyrillic"
COPYRIGHT "Copyright (c) 1994 Monotype Typography Ltd."
CAP_HEIGHT 12
X_HEIGHT 8
WEIGHT 10
QUAD_WIDTH 10
DEFAULT_CHAR 160
FONT_DESCENT 4
FONT_ASCENT 14
ENDPROPERTIES

CHARS 191

STARTCHAR space
ENCODING 32
SWIDTH 250 0
DWIDTH 4 0
BBX 0 0 0 0
BITMAP
ENDCHAR

STARTCHAR exclam
ENCODING 33
SWIDTH 312 0
DWIDTH 5 0
BBX 4 11 1 0
BITMAP
10
10
20
20
20
40
40
40
00
80
80
ENDCHAR

STARTCHAR quotedbl
ENCODING 34
SWIDTH 417 0
DWIDTH 6 0
BBX 3 4 2 7
BITMAP
A0
A0
A0
A0
ENDCHAR

STARTCHAR numbersign
ENCODING 35
SWIDTH 500 0
DWIDTH 8 0
BBX 8 11 0 0
BITMAP
12
12
12
7F
24
24
24
FE
48
48
48
ENDCHAR

STARTCHAR dollar
ENCODING 36
SWIDTH 490 0
DWIDTH 7 0
BBX 7 13 0 -2
BITMAP
08
1C
2A
48
48
38
14
14
14
98
70
20
20
ENDCHAR

STARTCHAR percent
ENCODING 37
SWIDTH 729 0
DWIDTH 11 0
BBX 10 11 1 0
BITMAP
2040
5080
9100
9100
A200
4480
0940
1240
1240
2280
4100
ENDCHAR

STARTCHAR ampersand
ENCODING 38
SWIDTH 948 0
DWIDTH 14 0
BBX 13 11 1 0
BITMAP
0E00
1100
2000
2010
7388
8470
8240
8040
8040
4080
3F00
ENDCHAR

STARTCHAR quoteright
ENCODING 39
SWIDTH 313 0
DWIDTH 5 0
BBX 3 4 1 7
BITMAP
60
60
20
C0
ENDCHAR

STARTCHAR parenleft
ENCODING 40
SWIDTH 448 0
DWIDTH 7 0
BBX 6 14 2 -3
BITMAP
0C
10
20
40
40
80
80
80
80
80
80
80
40
20
ENDCHAR

STARTCHAR parenright
ENCODING 41
SWIDTH 437 0
DWIDTH 7 0
BBX 6 14 -1 -3
BITMAP
10
08
04
04
04
04
04
04
04
08
08
10
20
C0
ENDCHAR

STARTCHAR asterisk
ENCODING 42
SWIDTH 521 0
DWIDTH 8 0
BBX 7 6 1 5
BITMAP
10
D6
38
38
44
82
ENDCHAR

STARTCHAR plus
ENCODING 43
SWIDTH 667 0
DWIDTH 10 0
BBX 7 7 2 1
BITMAP
10
10
10
FE
10
10
10
ENDCHAR

STARTCHAR comma
ENCODING 44
SWIDTH 313 0
DWIDTH 5 0
BBX 3 4 1 -2
BITMAP
60
60
20
C0
ENDCHAR

STARTCHAR minus
ENCODING 45
SWIDTH 667 0
DWIDTH 10 0
BBX 8 1 1 4
BITMAP
FF
ENDCHAR

STARTCHAR period
ENCODING 46
SWIDTH 312 0
DWIDTH 5 0
BBX 2 2 2 0
BITMAP
C0
C0
ENDCHAR

STARTCHAR slash
ENCODING 47
SWIDTH 281 0
DWIDTH 4 0
BBX 6 11 -1 0
BITMAP
04
04
08
08
10
10
20
20
40
40
80
ENDCHAR

STARTCHAR zero
ENCODING 48
SWIDTH 521 0
DWIDTH 8 0
BBX 7 11 1 0
BITMAP
1C
22
42
42
82
82
82
84
84
88
70
ENDCHAR

STARTCHAR one
ENCODING 49
SWIDTH 521 0
DWIDTH 8 0
BBX 4 11 2 0
BITMAP
10
30
10
10
20
20
20
40
40
40
E0
ENDCHAR

STARTCHAR two
ENCODING 50
SWIDTH 521 0
DWIDTH 8 0
BBX 7 11 1 0
BITMAP
1C
22
02
02
02
04
08
10
20
42
FC
ENDCHAR

STARTCHAR three
ENCODING 51
SWIDTH 521 0
DWIDTH 8 0
BBX 7 11 1 0
BITMAP
1C
22
02
02
04
38
04
04
04
88
70
ENDCHAR

STARTCHAR four
ENCODING 52
SWIDTH 521 0
DWIDTH 8 0
BBX 7 11 1 0
BITMAP
02
06
0A
12
12
24
44
84
FE
08
08
ENDCHAR

STARTCHAR five
ENCODING 53
SWIDTH 521 0
DWIDTH 8 0
BBX 7 11 1 0
BITMAP
1E
10
20
70
08
04
04
04
04
88
70
ENDCHAR

STARTCHAR six
ENCODING 54
SWIDTH 521 0
DWIDTH 8 0
BBX 7 11 1 0
BITMAP
06
18
20
40
B8
C4
84
84
84
48
30
ENDCHAR

STARTCHAR seven
ENCODING 55
SWIDTH 521 0
DWIDTH 8 0
BBX 7 11 1 0
BITMAP
7E
82
04
08
08
10
10
20
20
40
40
ENDCHAR

STARTCHAR eight
ENCODING 56
SWIDTH 521 0
DWIDTH 8 0
BBX 7 11 1 0
BITMAP
1C
22
42
42
44
38
44
84
84
88
70
ENDCHAR

STARTCHAR nine
ENCODING 57
SWIDTH 521 0
DWIDTH 8 0
BBX 7 11 1 0
BITMAP
18
24
42
42
42
46
3A
04
08
30
C0
ENDCHAR

STARTCHAR colon
ENCODING 58
SWIDTH 312 0
DWIDTH 5 0
BBX 3 7 1 0
BITMAP
60
60
00
00
00
C0
C0
ENDCHAR

STARTCHAR semicolon
ENCODING 59
SWIDTH 312 0
DWIDTH 5 0
BBX 4 9 0 -2
BITMAP
30
30
00
00
00
60
60
20
C0
ENDCHAR

STARTCHAR less
ENCODING 60
SWIDTH 667 0
DWIDTH 10 0
BBX 8 7 1 1
BITMAP
01
06
18
E0
18
06
01
ENDCHAR

STARTCHAR equal
ENCODING 61
SWIDTH 667 0
DWIDTH 10 0
BBX 8 3 1 3
BITMAP
FF
00
FF
ENDCHAR

STARTCHAR greater
ENCODING 62
SWIDTH 667 0
DWIDTH 10 0
BBX 8 7 1 1
BITMAP
80
60
18
07
18
60
80
ENDCHAR

STARTCHAR question
ENCODING 63
SWIDTH 406 0
DWIDTH 6 0
BBX 5 11 1 0
BITMAP
30
48
08
08
10
20
40
40
00
80
80
ENDCHAR

STARTCHAR at
ENCODING 64
SWIDTH 917 0
DWIDTH 14 0
BBX 12 14 1 -3
BITMAP
0780
1860
2020
4310
4490
8890
9090
9110
9360
4D80
4010
2020
18C0
0700
ENDCHAR

STARTCHAR A
ENCODING 65
SWIDTH 729 0
DWIDTH 11 0
BBX 10 11 0 0
BITMAP
0080
0080
0180
0280
0480
0880
0F80
1080
2080
4080
E1C0
ENDCHAR

STARTCHAR B
ENCODING 66
SWIDTH 698 0
DWIDTH 10 0
BBX 10 11 0 0
BITMAP
3F80
1040
1040
1040
2080
3F00
2100
4080
4080
4100
FE00
ENDCHAR

STARTCHAR C
ENCODING 67
SWIDTH 708 0
DWIDTH 11 0
BBX 10 11 1 0
BITMAP
07C0
1840
2040
4000
8000
8000
8000
8000
8080
4100
3E00
ENDCHAR

STARTCHAR D
ENCODING 68
SWIDTH 781 0
DWIDTH 12 0
BBX 11 11 0 0
BITMAP
3F00
10C0
1040
1020
2020
2020
2020
4040
4040
4180
FE00
ENDCHAR

STARTCHAR E
ENCODING 69
SWIDTH 656 0
DWIDTH 10 0
BBX 10 11 0 0
BITMAP
3FC0
1040
1040
1000
2100
3E00
2200
4000
4080
4100
FE00
ENDCHAR

STARTCHAR F
ENCODING 70
SWIDTH 635 0
DWIDTH 10 0
BBX 10 11 0 0
BITMAP
3FC0
1040
1040
1000
2100
3E00
2200
4000
4000
4000
E000
ENDCHAR

STARTCHAR G
ENCODING 71
SWIDTH 792 0
DWIDTH 12 0
BBX 11 11 1 0
BITMAP
07E0
1820
2020
4000
8000
8000
81C0
8080
8080
4100
3E00
ENDCHAR

STARTCHAR H
ENCODING 72
SWIDTH 823 0
DWIDTH 12 0
BBX 12 11 0 0
BITMAP
3870
1020
1020
1020
2040
3FC0
2040
4080
4080
4080
E1C0
ENDCHAR

STARTCHAR I
ENCODING 73
SWIDTH 375 0
DWIDTH 5 0
BBX 5 11 0 0
BITMAP
38
10
10
10
20
20
20
40
40
40
E0
ENDCHAR

STARTCHAR J
ENCODING 74
SWIDTH 479 0
DWIDTH 8 0
BBX 10 14 -2 -3
BITMAP
0EC0
1180
1900
0100
0F80
0200
0200
0200
0200
0400
0400
0400
8800
7000
ENDCHAR

STARTCHAR K
ENCODING 75
SWIDTH 771 0
DWIDTH 12 0
BBX 11 11 1 0
BITMAP
38E0
1040
1080
1100
2200
3C00
2400
4200
4200
4100
E1C0
ENDCHAR

STARTCHAR L
ENCODING 76
SWIDTH 646 0
DWIDTH 10 0
BBX 10 11 0 0
BITMAP
3800
1000
1000
1000
2000
2000
2000
4000
4040
4080
FF00
ENDCHAR

STARTCHAR M
ENCODING 77
SWIDTH 979 0
DWIDTH 15 0
BBX 14 11 0 0
BITMAP
180C
0818
0818
1428
1428
2448
2450
2290
4310
4310
E238
ENDCHAR

STARTCHAR N
ENCODING 78
SWIDTH 812 0
DWIDTH 12 0
BBX 12 11 0 0
BITMAP
3070
1020
1020
1840
2840
2440
2480
4280
4280
4100
E180
ENDCHAR

STARTCHAR O
ENCODING 79
SWIDTH 792 0
DWIDTH 12 0
BBX 10 11 1 0
BITMAP
0F00
1080
2040
4040
4040
8040
8080
8080
8100
4200
3C00
ENDCHAR

STARTCHAR P
ENCODING 80
SWIDTH 615 0
DWIDTH 9 0
BBX 9 11 0 0
BITMAP
3E00
1100
1080
1080
2080
2100
2E00
4000
4000
4000
E000
ENDCHAR

STARTCHAR Q
ENCODING 81
SWIDTH 792 0
DWIDTH 12 0
BBX 10 14 1 -3
BITMAP
0F00
1080
2040
4040
4040
8040
8080
8080
8100
4200
3C00
1000
1800
6F80
ENDCHAR

STARTCHAR R
ENCODING 82
SWIDTH 698 0
DWIDTH 10 0
BBX 9 11 0 0
BITMAP
3F00
1080
1080
1080
2100
3E00
2400
4200
4200
4100
E180
ENDCHAR

STARTCHAR S
ENCODING 83
SWIDTH 604 0
DWIDTH 9 0
BBX 7 11 1 0
BITMAP
1C
22
42
40
20
10
08
04
84
84
78
ENDCHAR

STARTCHAR T
ENCODING 84
SWIDTH 667 0
DWIDTH 10 0
BBX 11 11 1 0
BITMAP
7FE0
8440
8440
0400
0800
0800
0800
1000
1000
1000
3800
ENDCHAR

STARTCHAR U
ENCODING 85
SWIDTH 771 0
DWIDTH 12 0
BBX 11 11 1 0
BITMAP
70E0
2040
2040
4080
4080
4080
8100
8100
8100
4200
3C00
ENDCHAR

STARTCHAR V
ENCODING 86
SWIDTH 719 0
DWIDTH 11 0
BBX 10 11 1 0
BITMAP
E1C0
4080
4100
4200
4200
4400
4800
4800
5000
6000
4000
ENDCHAR

STARTCHAR W
ENCODING 87
SWIDTH 979 0
DWIDTH 15 0
BBX 16 11 1 0
BITMAP
E667
4282
4284
4288
4310
4620
4A20
4A40
5280
6300
4200
ENDCHAR

STARTCHAR X
ENCODING 88
SWIDTH 781 0
DWIDTH 12 0
BBX 12 11 0 0
BITMAP
3870
1020
0840
0880
0500
0600
0A00
1100
2100
4080
E1C0
ENDCHAR

STARTCHAR Y
ENCODING 89
SWIDTH 719 0
DWIDTH 11 0
BBX 10 11 2 0
BITMAP
E1C0
4080
4100
2200
2400
1800
1000
1000
2000
2000
7000
ENDCHAR

STARTCHAR Z
ENCODING 90
SWIDTH 625 0
DWIDTH 9 0
BBX 10 11 0 0
BITMAP
1FC0
2040
4080
0100
0200
0C00
1000
2000
4080
8100
FE00
ENDCHAR

STARTCHAR bracketleft
ENCODING 91
SWIDTH 375 0
DWIDTH 6 0
BBX 6 14 1 -3
BITMAP
1C
10
10
20
20
20
20
40
40
40
80
80
80
E0
ENDCHAR

STARTCHAR backslash
ENCODING 92
SWIDTH 281 0
DWIDTH 4 0
BBX 3 11 1 0
BITMAP
80
80
80
40
40
40
40
20
20
20
20
ENDCHAR

STARTCHAR bracketright
ENCODING 93
SWIDTH 375 0
DWIDTH 6 0
BBX 6 14 0 -3
BITMAP
1C
04
04
04
08
08
08
10
10
10
10
20
20
E0
ENDCHAR

STARTCHAR asciicircum
ENCODING 94
SWIDTH 427 0
DWIDTH 6 0
BBX 7 5 0 6
BITMAP
10
28
44
44
82
ENDCHAR

STARTCHAR underscore
ENCODING 95
SWIDTH 500 0
DWIDTH 8 0
BBX 8 1 0 -4
BITMAP
FF
ENDCHAR

STARTCHAR quoteleft
ENCODING 96
SWIDTH 312 0
DWIDTH 5 0
BBX 3 4 2 7
BITMAP
60
80
C0
C0
ENDCHAR

STARTCHAR a
ENCODING 97
SWIDTH 521 0
DWIDTH 8 0
BBX 7 7 1 0
BITMAP
1A
24
44
84
88
8A
74
ENDCHAR

STARTCHAR b
ENCODING 98
SWIDTH 469 0
DWIDTH 7 0
BBX 6 11 1 0
BITMAP
20
60
20
20
58
64
44
84
84
88
70
ENDCHAR

STARTCHAR c
ENCODING 99
SWIDTH 385 0
DWIDTH 6 0
BBX 7 7 1 0
BITMAP
1C
22
40
80
80
88
70
ENDCHAR

STARTCHAR d
ENCODING 100
SWIDTH 500 0
DWIDTH 8 0
BBX 8 11 1 0
BITMAP
01
03
01
01
1A
26
42
84
84
8D
76
ENDCHAR

STARTCHAR e
ENCODING 101
SWIDTH 385 0
DWIDTH 7 0
BBX 6 7 1 0
BITMAP
38
44
44
F8
80
88
70
ENDCHAR

STARTCHAR f
ENCODING 102
SWIDTH 281 0
DWIDTH 4 0
BBX 9 14 -2 -3
BITMAP
0300
0480
0400
0400
1E00
0800
0800
0800
1000
1000
1000
2000
A000
C000
ENDCHAR

STARTCHAR g
ENCODING 103
SWIDTH 448 0
DWIDTH 7 0
BBX 8 10 0 -3
BITMAP
0D
12
22
24
38
40
78
84
84
78
ENDCHAR

STARTCHAR h
ENCODING 104
SWIDTH 521 0
DWIDTH 8 0
BBX 7 11 1 0
BITMAP
20
60
20
20
58
64
44
44
88
8A
84
ENDCHAR

STARTCHAR i
ENCODING 105
SWIDTH 271 0
DWIDTH 4 0
BBX 4 11 0 0
BITMAP
10
10
00
00
60
A0
20
40
40
50
20
ENDCHAR

STARTCHAR j
ENCODING 106
SWIDTH 240 0
DWIDTH 4 0
BBX 5 14 -1 -3
BITMAP
08
08
00
00
10
28
08
08
10
10
10
20
A0
C0
ENDCHAR

STARTCHAR k
ENCODING 107
SWIDTH 521 0
DWIDTH 8 0
BBX 6 11 1 0
BITMAP
20
60
20
20
58
64
44
78
90
94
88
ENDCHAR

STARTCHAR l
ENCODING 108
SWIDTH 240 0
DWIDTH 4 0
BBX 3 11 1 0
BITMAP
20
60
20
20
40
40
40
80
80
A0
40
ENDCHAR

STARTCHAR m
ENCODING 109
SWIDTH 771 0
DWIDTH 12 0
BBX 12 7 0 0
BITMAP
6CC0
B320
2220
2220
4440
4450
4420
ENDCHAR

STARTCHAR n
ENCODING 110
SWIDTH 531 0
DWIDTH 8 0
BBX 8 7 0 0
BITMAP
6C
B2
22
22
44
45
42
ENDCHAR

STARTCHAR o
ENCODING 111
SWIDTH 448 0
DWIDTH 7 0
BBX 6 7 1 0
BITMAP
38
44
84
84
84
88
70
ENDCHAR

STARTCHAR p
ENCODING 112
SWIDTH 490 0
DWIDTH 7 0
BBX 8 11 -1 -3
BITMAP
10
3E
51
11
21
21
32
2C
40
40
E0
ENDCHAR

STARTCHAR q
ENCODING 113
SWIDTH 448 0
DWIDTH 7 0
BBX 6 10 1 -3
BITMAP
34
4C
44
84
88
88
70
10
10
38
ENDCHAR

STARTCHAR r
ENCODING 114
SWIDTH 344 0
DWIDTH 5 0
BBX 6 7 0 0
BITMAP
6C
B4
20
20
40
40
40
ENDCHAR

STARTCHAR s
ENCODING 115
SWIDTH 333 0
DWIDTH 5 0
BBX 5 7 0 0
BITMAP
38
48
40
20
10
90
E0
ENDCHAR

STARTCHAR t
ENCODING 116
SWIDTH 292 0
DWIDTH 4 0
BBX 4 9 1 0
BITMAP
20
20
F0
40
40
80
80
A0
40
ENDCHAR

STARTCHAR u
ENCODING 117
SWIDTH 531 0
DWIDTH 8 0
BBX 8 7 0 0
BITMAP
42
A2
22
44
44
4D
36
ENDCHAR

STARTCHAR v
ENCODING 118
SWIDTH 521 0
DWIDTH 8 0
BBX 8 7 0 0
BITMAP
72
91
11
21
22
24
18
ENDCHAR

STARTCHAR w
ENCODING 119
SWIDTH 688 0
DWIDTH 10 0
BBX 11 7 -1 0
BITMAP
7240
9220
1220
2220
2420
2640
1980
ENDCHAR

STARTCHAR x
ENCODING 120
SWIDTH 490 0
DWIDTH 7 0
BBX 8 7 0 0
BITMAP
23
54
08
08
18
25
C2
ENDCHAR

STARTCHAR y
ENCODING 121
SWIDTH 479 0
DWIDTH 7 0
BBX 9 10 -2 -3
BITMAP
1100
2880
0880
0880
0900
0500
0600
0400
9800
6000
ENDCHAR

STARTCHAR z
ENCODING 122
SWIDTH 490 0
DWIDTH 6 0
BBX 7 7 0 0
BITMAP
32
4C
08
10
20
64
98
ENDCHAR

STARTCHAR braceleft
ENCODING 123
SWIDTH 479 0
DWIDTH 7 0
BBX 6 14 2 -3
BITMAP
0C
10
20
20
20
40
80
80
40
80
80
80
80
60
ENDCHAR

STARTCHAR bar
ENCODING 124
SWIDTH 198 0
DWIDTH 3 0
BBX 1 14 1 -3
BITMAP
80
80
80
80
80
80
80
80
80
80
80
80
80
80
ENDCHAR

STARTCHAR braceright
ENCODING 125
SWIDTH 479 0
DWIDTH 7 0
BBX 6 14 0 -3
BITMAP
18
04
04
04
04
08
04
04
08
10
10
10
20
C0
ENDCHAR

STARTCHAR asciitilde
ENCODING 126
SWIDTH 542 0
DWIDTH 8 0
BBX 8 2 0 4
BITMAP
71
8E
ENDCHAR

STARTCHAR space
ENCODING 160
SWIDTH 250 0
DWIDTH 5 0
BBX 0 0 0 0
BITMAP
ENDCHAR

STARTCHAR afii10023
ENCODING 161
SWIDTH 656 0
DWIDTH 10 0
BBX 10 14 0 0
BITMAP
0900
0900
0000
3FC0
1040
1040
1000
2100
3E00
2200
4000
4080
4100
FE00
ENDCHAR

STARTCHAR afii10051
ENCODING 162
SWIDTH 771 0
DWIDTH 12 0
BBX 10 11 1 0
BITMAP
7FC0
8880
8880
0800
1700
1880
1040
1040
2440
2480
7300
ENDCHAR

STARTCHAR afii10052
ENCODING 163
SWIDTH 563 0
DWIDTH 8 0
BBX 9 14 0 0
BITMAP
0300
0400
0000
3F80
1100
1100
1000
2000
2000
2000
4000
4000
4000
E000
ENDCHAR

STARTCHAR afii10053
ENCODING 164
SWIDTH 708 0
DWIDTH 11 0
BBX 10 11 1 0
BITMAP
0F80
3040
4040
4000
FE00
8000
8000
8000
4080
6100
1E00
ENDCHAR

STARTCHAR afii10054
ENCODING 165
SWIDTH 604 0
DWIDTH 9 0
BBX 7 11 1 0
BITMAP
1C
22
42
40
20
10
08
04
84
84
78
ENDCHAR

STARTCHAR afii10055
ENCODING 166
SWIDTH 375 0
DWIDTH 5 0
BBX 5 11 0 0
BITMAP
38
10
10
10
20
20
20
40
40
40
E0
ENDCHAR

STARTCHAR afii10056
ENCODING 167
SWIDTH 375 0
DWIDTH 5 0
BBX 6 14 0 0
BITMAP
24
24
00
38
10
10
10
20
20
20
40
40
40
E0
ENDCHAR

STARTCHAR afii10057
ENCODING 168
SWIDTH 479 0
DWIDTH 8 0
BBX 10 14 -2 -3
BITMAP
0EC0
1180
1900
0100
0F80
0200
0200
0200
0200
0400
0400
0400
8800
7000
ENDCHAR

STARTCHAR afii10058
ENCODING 169
SWIDTH 927 0
DWIDTH 15 0
BBX 14 11 0 0
BITMAP
1FC0
0880
0880
0880
1100
11F0
1108
2204
2204
A208
C7F0
ENDCHAR

STARTCHAR afii10059
ENCODING 170
SWIDTH 970 0
DWIDTH 15 0
BBX 14 11 0 0
BITMAP
39C0
1080
1080
1080
2100
3FF0
2108
4104
4204
4208
E7F0
ENDCHAR

STARTCHAR afii10060
ENCODING 171
SWIDTH 802 0
DWIDTH 12 0
BBX 10 11 1 0
BITMAP
7FC0
8880
8880
0800
1780
1840
1040
2040
2080
2080
71C0
ENDCHAR

STARTCHAR afii10061
ENCODING 172
SWIDTH 708 0
DWIDTH 11 0
BBX 11 14 0 0
BITMAP
0180
0200
0000
3860
10A0
1080
1080
2100
3E00
2200
4200
4100
4100
E180
ENDCHAR

STARTCHAR hyphen
ENCODING 173
SWIDTH 365 0
DWIDTH 5 0
BBX 4 1 1 3
BITMAP
F0
ENDCHAR

STARTCHAR afii10062
ENCODING 174
SWIDTH 688 0
DWIDTH 10 0
BBX 9 14 1 0
BITMAP
1100
0E00
0000
7380
2100
2100
2200
2200
1400
1400
1800
1000
A000
C000
ENDCHAR

STARTCHAR afii10145
ENCODING 175
SWIDTH 813 0
DWIDTH 12 0
BBX 12 13 0 -2
BITMAP
3870
1020
1020
1020
2040
2040
2040
4080
4080
4080
FFC0
0400
0400
ENDCHAR

STARTCHAR afii10017
ENCODING 176
SWIDTH 729 0
DWIDTH 11 0
BBX 10 11 0 0
BITMAP
0080
0080
0180
0280
0480
0880
0F80
1080
2080
4080
E1C0
ENDCHAR

STARTCHAR afii10018
ENCODING 177
SWIDTH 688 0
DWIDTH 10 0
BBX 10 11 0 0
BITMAP
3FC0
1080
1080
1000
2000
3E00
2100
4080
4080
4100
FE00
ENDCHAR

STARTCHAR afii10019
ENCODING 178
SWIDTH 698 0
DWIDTH 10 0
BBX 10 11 0 0
BITMAP
3F80
1040
1040
1040
2080
3F00
2100
4080
4080
4100
FE00
ENDCHAR

STARTCHAR afii10020
ENCODING 179
SWIDTH 563 0
DWIDTH 8 0
BBX 9 11 0 0
BITMAP
3F80
1100
1100
1000
2000
2000
2000
4000
4000
4000
E000
ENDCHAR

STARTCHAR afii10021
ENCODING 180
SWIDTH 677 0
DWIDTH 10 0
BBX 11 13 0 -2
BITMAP
1FE0
0840
0840
0840
1080
1080
1080
2100
2100
4100
FF80
8080
8080
ENDCHAR

STARTCHAR afii10022
ENCODING 181
SWIDTH 656 0
DWIDTH 10 0
BBX 10 11 0 0
BITMAP
3FC0
1040
1040
1000
2100
3E00
2200
4000
4080
4100
FE00
ENDCHAR

STARTCHAR afii10024
ENCODING 182
SWIDTH 969 0
DWIDTH 15 0
BBX 15 11 0 0
BITMAP
31C6
0888
0888
0888
0890
07E0
0940
1120
2220
4210
C718
ENDCHAR

STARTCHAR afii10025
ENCODING 183
SWIDTH 569 0
DWIDTH 9 0
BBX 8 11 0 0
BITMAP
1E
21
01
01
06
18
04
02
02
84
78
ENDCHAR

STARTCHAR afii10026
ENCODING 184
SWIDTH 813 0
DWIDTH 12 0
BBX 12 11 0 0
BITMAP
3870
1060
10A0
1120
2240
2440
2840
5080
6080
4080
E1C0
ENDCHAR

STARTCHAR afii10027
ENCODING 185
SWIDTH 813 0
DWIDTH 12 0
BBX 12 14 0 0
BITMAP
0440
0380
0000
3870
1060
10A0
1120
2240
2440
2840
5080
6080
4080
E1C0
ENDCHAR

STARTCHAR afii10028
ENCODING 186
SWIDTH 708 0
DWIDTH 11 0
BBX 11 11 0 0
BITMAP
3860
10A0
1080
1080
2100
3E00
2200
4200
4100
4100
E180
ENDCHAR

STARTCHAR afii10029
ENCODING 187
SWIDTH 718 0
DWIDTH 10 0
BBX 10 11 0 0
BITMAP
1FC0
0880
0880
0880
1100
1100
1100
2200
2200
A200
C700
ENDCHAR

STARTCHAR afii10030
ENCODING 188
SWIDTH 979 0
DWIDTH 15 0
BBX 14 11 0 0
BITMAP
180C
0818
0818
1428
1428
2448
2450
2290
4310
4310
E238
ENDCHAR

STARTCHAR afii10031
ENCODING 189
SWIDTH 823 0
DWIDTH 12 0
BBX 12 11 0 0
BITMAP
3870
1020
1020
1020
2040
3FC0
2040
4080
4080
4080
E1C0
ENDCHAR

STARTCHAR afii10032
ENCODING 190
SWIDTH 792 0
DWIDTH 12 0
BBX 10 11 1 0
BITMAP
0F00
1080
2040
4040
4040
8040
8080
8080
8100
4200
3C00
ENDCHAR

STARTCHAR afii10033
ENCODING 191
SWIDTH 813 0
DWIDTH 12 0
BBX 12 11 0 0
BITMAP
3FF0
1020
1020
1020
2040
2040
2040
4080
4080
4080
E1C0
ENDCHAR

STARTCHAR afii10034
ENCODING 192
SWIDTH 615 0
DWIDTH 9 0
BBX 9 11 0 0
BITMAP
3E00
1100
1080
1080
2080
2100
2E00
4000
4000
4000
E000
ENDCHAR

STARTCHAR afii10035
ENCODING 193
SWIDTH 708 0
DWIDTH 11 0
BBX 10 11 1 0
BITMAP
07C0
1840
2040
4000
8000
8000
8000
8000
8080
4100
3E00
ENDCHAR

STARTCHAR afii10036
ENCODING 194
SWIDTH 667 0
DWIDTH 10 0
BBX 11 11 1 0
BITMAP
7FE0
8440
8440
0400
0800
0800
0800
1000
1000
1000
3800
ENDCHAR

STARTCHAR afii10037
ENCODING 195
SWIDTH 688 0
DWIDTH 10 0
BBX 9 11 1 0
BITMAP
7380
2100
2100
2200
2200
1400
1400
1800
1000
A000
C000
ENDCHAR

STARTCHAR afii10038
ENCODING 196
SWIDTH 917 0
DWIDTH 15 0
BBX 13 11 1 0
BITMAP
0380
0100
1FE0
6210
8208
8208
8208
4230
3FC0
0400
0E00
ENDCHAR

STARTCHAR afii10039
ENCODING 197
SWIDTH 781 0
DWIDTH 12 0
BBX 12 11 0 0
BITMAP
3870
1020
0840
0880
0500
0600
0A00
1100
2100
4080
E1C0
ENDCHAR

STARTCHAR afii10040
ENCODING 198
SWIDTH 813 0
DWIDTH 12 0
BBX 12 13 0 -2
BITMAP
3870
1020
1020
1020
2040
2040
2040
4080
4080
4080
FFC0
0040
0040
ENDCHAR

STARTCHAR afii10041
ENCODING 199
SWIDTH 771 0
DWIDTH 10 0
BBX 9 11 1 0
BITMAP
E380
4100
4100
8100
8200
8600
7A00
0400
0400
0400
0E00
ENDCHAR

STARTCHAR afii10042
ENCODING 200
SWIDTH 1000 0
DWIDTH 15 0
BBX 15 11 0 0
BITMAP
39CE
1084
1084
1084
2108
2108
2108
4210
4210
4210
FFF8
ENDCHAR

STARTCHAR afii10043
ENCODING 201
SWIDTH 1000 0
DWIDTH 15 0
BBX 15 13 0 -2
BITMAP
39CE
1084
1084
1084
2108
2108
2108
4210
4210
4210
FFF8
0008
0008
ENDCHAR

STARTCHAR afii10044
ENCODING 202
SWIDTH 741 0
DWIDTH 11 0
BBX 10 11 0 0
BITMAP
7C00
8800
8800
0800
1000
1F00
1080
2040
2040
2080
7F00
ENDCHAR

STARTCHAR afii10045
ENCODING 203
SWIDTH 979 0
DWIDTH 15 0
BBX 15 11 0 0
BITMAP
380E
1004
1004
1004
2008
3E08
2108
4090
4090
4110
FE38
ENDCHAR

STARTCHAR afii10046
ENCODING 204
SWIDTH 642 0
DWIDTH 10 0
BBX 9 11 0 0
BITMAP
3800
1000
1000
1000
2000
3E00
2100
4080
4080
4100
FE00
ENDCHAR

STARTCHAR afii10047
ENCODING 205
SWIDTH 708 0
DWIDTH 11 0
BBX 10 11 1 0
BITMAP
1E00
2180
4080
0040
0040
1FC0
0040
0080
8080
8300
7C00
ENDCHAR

STARTCHAR afii10048
ENCODING 206
SWIDTH 1135 0
DWIDTH 17 0
BBX 17 11 0 0
BITMAP
381E00
102100
104080
108080
208080
3F0080
210100
410100
410200
408400
E07800
ENDCHAR

STARTCHAR afii10049
ENCODING 207
SWIDTH 698 0
DWIDTH 10 0
BBX 11 11 -1 0
BITMAP
0FE0
1040
2040
2040
1080
0F80
1080
1100
2100
4100
C380
ENDCHAR

STARTCHAR afii10065
ENCODING 208
SWIDTH 521 0
DWIDTH 8 0
BBX 7 7 1 0
BITMAP
1A
24
44
84
88
8A
74
ENDCHAR

STARTCHAR afii10066
ENCODING 209
SWIDTH 448 0
DWIDTH 7 0
BBX 7 11 1 0
BITMAP
02
1C
20
40
98
A4
C4
84
84
88
70
ENDCHAR

STARTCHAR afii10067
ENCODING 210
SWIDTH 385 0
DWIDTH 6 0
BBX 5 7 1 0
BITMAP
30
48
50
F0
90
90
60
ENDCHAR

STARTCHAR afii10068
ENCODING 211
SWIDTH 302 0
DWIDTH 5 0
BBX 4 7 1 0
BITMAP
60
10
10
60
80
A0
40
ENDCHAR

STARTCHAR afii10069
ENCODING 212
SWIDTH 449 0
DWIDTH 7 0
BBX 6 11 1 0
BITMAP
30
08
08
04
1C
64
44
84
84
88
70
ENDCHAR

STARTCHAR afii10070
ENCODING 213
SWIDTH 385 0
DWIDTH 7 0
BBX 6 7 1 0
BITMAP
38
44
44
F8
80
88
70
ENDCHAR

STARTCHAR afii10072
ENCODING 214
SWIDTH 875 0
DWIDTH 13 0
BBX 15 7 -1 0
BITMAP
188C
2492
0520
07C0
0940
9244
6238
ENDCHAR

STARTCHAR afii10073
ENCODING 215
SWIDTH 365 0
DWIDTH 6 0
BBX 6 7 0 0
BITMAP
18
24
04
38
08
88
70
ENDCHAR

STARTCHAR afii10074
ENCODING 216
SWIDTH 531 0
DWIDTH 8 0
BBX 8 7 0 0
BITMAP
42
A2
22
44
44
4D
36
ENDCHAR

STARTCHAR afii10075
ENCODING 217
SWIDTH 531 0
DWIDTH 8 0
BBX 8 10 0 0
BITMAP
22
1C
00
42
A2
22
44
44
4D
36
ENDCHAR

STARTCHAR afii10076
ENCODING 218
SWIDTH 489 0
DWIDTH 7 0
BBX 7 7 1 0
BITMAP
C6
48
48
70
90
88
8C
ENDCHAR

STARTCHAR afii10077
ENCODING 219
SWIDTH 490 0
DWIDTH 7 0
BBX 7 7 0 0
BITMAP
0C
14
14
24
28
4A
8C
ENDCHAR

STARTCHAR afii10078
ENCODING 220
SWIDTH 586 0
DWIDTH 9 0
BBX 10 7 0 0
BITMAP
10C0
1180
3280
3500
4D00
4940
8880
ENDCHAR

STARTCHAR afii10079
ENCODING 221
SWIDTH 525 0
DWIDTH 8 0
BBX 7 7 1 0
BITMAP
C4
44
44
78
88
8A
84
ENDCHAR

STARTCHAR afii10080
ENCODING 222
SWIDTH 448 0
DWIDTH 7 0
BBX 6 7 1 0
BITMAP
38
44
84
84
84
88
70
ENDCHAR

STARTCHAR afii10081
ENCODING 223
SWIDTH 531 0
DWIDTH 8 0
BBX 8 7 0 0
BITMAP
6C
B2
22
22
44
45
42
ENDCHAR

STARTCHAR afii10082
ENCODING 224
SWIDTH 490 0
DWIDTH 7 0
BBX 8 11 -1 -3
BITMAP
10
3E
51
11
21
21
32
2C
40
40
E0
ENDCHAR

STARTCHAR afii10083
ENCODING 225
SWIDTH 385 0
DWIDTH 6 0
BBX 7 7 1 0
BITMAP
1C
22
40
80
80
88
70
ENDCHAR

STARTCHAR afii10084
ENCODING 226
SWIDTH 771 0
DWIDTH 12 0
BBX 12 7 0 0
BITMAP
6CC0
B320
2220
2220
4440
4450
4420
ENDCHAR

STARTCHAR afii10085
ENCODING 227
SWIDTH 479 0
DWIDTH 7 0
BBX 9 10 -2 -3
BITMAP
1100
2880
0880
0880
0900
0500
0600
0400
9800
6000
ENDCHAR

STARTCHAR afii10086
ENCODING 228
SWIDTH 625 0
DWIDTH 9 0
BBX 8 14 1 -3
BITMAP
03
05
04
04
3E
49
89
91
91
92
7C
20
A0
C0
ENDCHAR

STARTCHAR afii10087
ENCODING 229
SWIDTH 490 0
DWIDTH 7 0
BBX 8 7 0 0
BITMAP
23
54
08
08
18
25
C2
ENDCHAR

STARTCHAR afii10088
ENCODING 230
SWIDTH 521 0
DWIDTH 8 0
BBX 8 9 0 -2
BITMAP
42
A2
22
44
44
4D
36
04
08
ENDCHAR

STARTCHAR afii10089
ENCODING 231
SWIDTH 490 0
DWIDTH 7 0
BBX 7 7 0 0
BITMAP
66
A4
44
58
28
0A
0C
ENDCHAR

STARTCHAR afii10090
ENCODING 232
SWIDTH 792 0
DWIDTH 10 0
BBX 11 7 0 0
BITMAP
6480
A440
2440
4440
4880
4CA0
3340
ENDCHAR

STARTCHAR afii10091
ENCODING 233
SWIDTH 792 0
DWIDTH 10 0
BBX 11 9 0 -2
BITMAP
6480
A440
2440
4440
4880
4CA0
3340
0040
0080
ENDCHAR

STARTCHAR afii10092
ENCODING 234
SWIDTH 396 0
DWIDTH 6 0
BBX 6 7 0 0
BITMAP
70
90
10
28
44
48
30
ENDCHAR

STARTCHAR afii10093
ENCODING 235
SWIDTH 624 0
DWIDTH 10 0
BBX 9 7 1 0
BITMAP
6300
2100
2100
5200
8A00
9280
6100
ENDCHAR

STARTCHAR afii10094
ENCODING 236
SWIDTH 406 0
DWIDTH 6 0
BBX 5 7 1 0
BITMAP
60
20
20
50
88
90
60
ENDCHAR

STARTCHAR afii10095
ENCODING 237
SWIDTH 396 0
DWIDTH 6 0
BBX 5 7 1 0
BITMAP
30
48
08
38
08
90
60
ENDCHAR

STARTCHAR afii10096
ENCODING 238
SWIDTH 667 0
DWIDTH 10 0
BBX 9 7 1 0
BITMAP
C700
4880
5080
7080
9080
9100
8E00
ENDCHAR

STARTCHAR afii10097
ENCODING 239
SWIDTH 542 0
DWIDTH 8 0
BBX 8 7 0 0
BITMAP
1F
22
22
1C
24
45
C2
ENDCHAR

STARTCHAR afii61352
ENCODING 240
SWIDTH 1031 0
DWIDTH 14 0
BBX 14 11 0 0
BITMAP
1C30
0C40
0C40
1448
1494
14A4
12A4
22A8
2310
2100
C178
ENDCHAR

STARTCHAR afii10071
ENCODING 241
SWIDTH 385 0
DWIDTH 7 0
BBX 6 10 1 0
BITMAP
24
24
00
38
44
44
F8
80
88
70
ENDCHAR

STARTCHAR afii10099
ENCODING 242
SWIDTH 510 0
DWIDTH 8 0
BBX 6 14 1 -3
BITMAP
20
7C
20
20
58
64
44
44
84
88
88
08
08
10
ENDCHAR

STARTCHAR afii10100
ENCODING 243
SWIDTH 448 0
DWIDTH 7 0
BBX 7 10 0 0
BITMAP
0C
10
00
7E
22
20
20
40
40
E0
ENDCHAR

STARTCHAR afii10101
ENCODING 244
SWIDTH 406 0
DWIDTH 6 0
BBX 5 7 1 0
BITMAP
30
48
80
E0
80
90
60
ENDCHAR

STARTCHAR afii10102
ENCODING 245
SWIDTH 333 0
DWIDTH 5 0
BBX 5 7 0 0
BITMAP
38
48
40
20
10
90
E0
ENDCHAR

STARTCHAR afii10103
ENCODING 246
SWIDTH 271 0
DWIDTH 4 0
BBX 4 11 0 0
BITMAP
10
10
00
00
60
A0
20
40
40
50
20
ENDCHAR

STARTCHAR afii10104
ENCODING 247
SWIDTH 271 0
DWIDTH 4 0
BBX 5 10 0 0
BITMAP
48
48
00
60
A0
20
40
40
50
20
ENDCHAR

STARTCHAR afii10105
ENCODING 248
SWIDTH 240 0
DWIDTH 4 0
BBX 5 14 -1 -3
BITMAP
08
08
00
00
10
28
08
08
10
10
10
20
A0
C0
ENDCHAR

STARTCHAR afii10106
ENCODING 249
SWIDTH 663 0
DWIDTH 10 0
BBX 10 7 0 0
BITMAP
0700
0900
1100
1280
2440
2480
C300
ENDCHAR

STARTCHAR afii10107
ENCODING 250
SWIDTH 691 0
DWIDTH 9 0
BBX 8 7 1 0
BITMAP
CC
44
7C
4A
91
92
8C
ENDCHAR

STARTCHAR afii10108
ENCODING 251
SWIDTH 500 0
DWIDTH 8 0
BBX 7 11 1 0
BITMAP
20
7C
20
20
58
64
44
44
88
8A
84
ENDCHAR

STARTCHAR afii10109
ENCODING 252
SWIDTH 489 0
DWIDTH 7 0
BBX 7 10 1 0
BITMAP
18
20
00
C6
48
48
70
90
88
8C
ENDCHAR

STARTCHAR section
ENCODING 253
SWIDTH 458 0
DWIDTH 7 0
BBX 8 14 -1 -3
BITMAP
06
0B
11
10
28
28
28
14
14
14
08
88
D0
60
ENDCHAR

STARTCHAR afii10110
ENCODING 254
SWIDTH 479 0
DWIDTH 7 0
BBX 9 13 -2 -3
BITMAP
0880
0700
0000
1100
2880
0880
0880
0900
0500
0600
0400
9800
6000
ENDCHAR

STARTCHAR afii10193
ENCODING 255
SWIDTH 531 0
DWIDTH 8 0
BBX 8 9 0 -2
BITMAP
42
A2
22
44
44
4D
36
20
40
ENDCHAR
ENDFONT
